<svg width="26" height="26" viewBox="0 0 26 26" fill="none" xmlns="http://www.w3.org/2000/svg">
<path d="M2.06071 0.971169L24.6357 11.768C24.8639 11.8769 25.0566 12.0482 25.1914 12.2621C25.3263 12.476 25.3979 12.7237 25.3979 12.9765C25.3979 13.2294 25.3263 13.4771 25.1914 13.6909C25.0566 13.9048 24.8639 14.0761 24.6357 14.1851L2.06071 24.9819C1.82929 25.0927 1.57089 25.1348 1.31626 25.103C1.06164 25.0712 0.821502 24.9669 0.62443 24.8026C0.427358 24.6382 0.281645 24.4207 0.204628 24.176C0.127612 23.9312 0.122534 23.6695 0.19 23.4219L2.44857 15.1419C2.47622 15.0404 2.53312 14.9493 2.61219 14.88C2.69126 14.8106 2.789 14.7661 2.89321 14.7519L13.8325 13.2658C13.8782 13.2593 13.9215 13.2411 13.9581 13.2129C13.9947 13.1848 14.0234 13.1476 14.0414 13.1051L14.0607 13.0387C14.0692 12.9789 14.0571 12.9179 14.0266 12.8658C13.9961 12.8137 13.9488 12.7734 13.8925 12.7515L13.8336 12.7355L2.905 11.2494C2.80098 11.235 2.70347 11.1904 2.62461 11.121C2.54575 11.0517 2.489 10.9607 2.46143 10.8594L0.19 2.53224C0.122261 2.28459 0.127132 2.0227 0.204032 1.77774C0.280933 1.53278 0.426621 1.31509 0.623746 1.1506C0.820871 0.986102 1.06112 0.881732 1.31589 0.849921C1.57065 0.818109 1.82919 0.860196 2.06071 0.971169Z" fill="white"/>
</svg>
